<?xml version="1.0" encoding="UTF-8" standalone="no"?>
<!DOCTYPE svg PUBLIC "-//W3C//DTD SVG 1.1//EN"
 "http://www.w3.org/Graphics/SVG/1.1/DTD/svg11.dtd">
<!-- Generated by graphviz version 8.0.5 (20230430.1635)
 -->
<!-- Title: G Pages: 1 -->
<svg width="385pt" height="250pt"
 viewBox="0.00 0.00 384.73 249.60" xmlns="http://www.w3.org/2000/svg" xmlns:xlink="http://www.w3.org/1999/xlink">
<g id="graph0" class="graph" transform="scale(1 1) rotate(0) translate(4 245.6)">
<title>G</title>
<!-- run -->
<g id="node1" class="node">
<title>run</title>
<ellipse fill="none" stroke="black" cx="110.57" cy="-111.48" rx="28.28" ry="19.45"/>
<text text-anchor="middle" x="110.57" y="-107.93" font-family="Helvetica,Arial,sans-serif" font-size="14.00">run</text>
</g>
<!-- intr -->
<g id="node2" class="node">
<title>intr</title>
<ellipse fill="none" stroke="black" cx="53.46" cy="-61.15" rx="28.28" ry="19.45"/>
<text text-anchor="middle" x="53.46" y="-57.6" font-family="Helvetica,Arial,sans-serif" font-size="14.00">intr</text>
</g>
<!-- run&#45;&#45;intr -->
<g id="edge1" class="edge">
<title>run&#45;&#45;intr</title>
<path fill="none" stroke="black" d="M92.81,-95.83C85.87,-89.71 77.93,-82.72 71.01,-76.62"/>
</g>
<!-- kernel -->
<g id="node4" class="node">
<title>kernel</title>
<ellipse fill="none" stroke="black" cx="186.3" cy="-138.98" rx="41.54" ry="19.45"/>
<text text-anchor="middle" x="186.3" y="-135.43" font-family="Helvetica,Arial,sans-serif" font-size="14.00">kernel</text>
</g>
<!-- run&#45;&#45;kernel -->
<g id="edge4" class="edge">
<title>run&#45;&#45;kernel</title>
<path fill="none" stroke="black" d="M135.78,-120.64C141.29,-122.64 147.2,-124.78 152.97,-126.88"/>
</g>
<!-- runbl -->
<g id="node3" class="node">
<title>runbl</title>
<ellipse fill="none" stroke="black" cx="36.77" cy="-127.61" rx="36.77" ry="19.45"/>
<text text-anchor="middle" x="36.77" y="-124.06" font-family="Helvetica,Arial,sans-serif" font-size="14.00">runbl</text>
</g>
<!-- intr&#45;&#45;runbl -->
<g id="edge2" class="edge">
<title>intr&#45;&#45;runbl</title>
<path fill="none" stroke="black" d="M48.54,-80.73C46.39,-89.31 43.87,-99.35 41.71,-107.94"/>
</g>
<!-- runbl&#45;&#45;run -->
<g id="edge3" class="edge">
<title>runbl&#45;&#45;run</title>
<path fill="none" stroke="black" d="M71.08,-120.11C75.14,-119.22 79.25,-118.32 83.2,-117.46"/>
</g>
<!-- zombie -->
<g id="node5" class="node">
<title>zombie</title>
<ellipse fill="none" stroke="black" cx="173.66" cy="-222.16" rx="45.25" ry="19.45"/>
<text text-anchor="middle" x="173.66" y="-218.61" font-family="Helvetica,Arial,sans-serif" font-size="14.00">zombie</text>
</g>
<!-- kernel&#45;&#45;zombie -->
<g id="edge5" class="edge">
<title>kernel&#45;&#45;zombie</title>
<path fill="none" stroke="black" d="M183.3,-158.69C181.3,-171.86 178.68,-189.11 176.68,-202.3"/>
</g>
<!-- sleep -->
<g id="node6" class="node">
<title>sleep</title>
<ellipse fill="none" stroke="black" cx="258.6" cy="-156.41" rx="36.24" ry="19.45"/>
<text text-anchor="middle" x="258.6" y="-152.86" font-family="Helvetica,Arial,sans-serif" font-size="14.00">sleep</text>
</g>
<!-- kernel&#45;&#45;sleep -->
<g id="edge6" class="edge">
<title>kernel&#45;&#45;sleep</title>
<path fill="none" stroke="black" d="M223.72,-148C224.27,-148.14 224.82,-148.27 225.37,-148.4"/>
</g>
<!-- runmem -->
<g id="node7" class="node">
<title>runmem</title>
<ellipse fill="none" stroke="black" cx="245.52" cy="-84.8" rx="52.15" ry="19.45"/>
<text text-anchor="middle" x="245.52" y="-81.25" font-family="Helvetica,Arial,sans-serif" font-size="14.00">runmem</text>
</g>
<!-- kernel&#45;&#45;runmem -->
<g id="edge7" class="edge">
<title>kernel&#45;&#45;runmem</title>
<path fill="none" stroke="black" d="M205.36,-121.54C211.85,-115.6 219.12,-108.95 225.67,-102.96"/>
</g>
<!-- sleep&#45;&#45;runmem -->
<g id="edge13" class="edge">
<title>sleep&#45;&#45;runmem</title>
<path fill="none" stroke="black" d="M255.02,-136.85C253.18,-126.74 250.93,-114.45 249.09,-104.35"/>
</g>
<!-- swap -->
<g id="node8" class="node">
<title>swap</title>
<ellipse fill="none" stroke="black" cx="336.3" cy="-149.7" rx="35.18" ry="19.45"/>
<text text-anchor="middle" x="336.3" y="-146.15" font-family="Helvetica,Arial,sans-serif" font-size="14.00">swap</text>
</g>
<!-- sleep&#45;&#45;swap -->
<g id="edge8" class="edge">
<title>sleep&#45;&#45;swap</title>
<path fill="none" stroke="black" d="M294.72,-153.29C296.94,-153.1 299.17,-152.91 301.38,-152.72"/>
</g>
<!-- runswap -->
<g id="node9" class="node">
<title>runswap</title>
<ellipse fill="none" stroke="black" cx="324.58" cy="-74.9" rx="52.15" ry="19.45"/>
<text text-anchor="middle" x="324.58" y="-71.35" font-family="Helvetica,Arial,sans-serif" font-size="14.00">runswap</text>
</g>
<!-- swap&#45;&#45;runswap -->
<g id="edge9" class="edge">
<title>swap&#45;&#45;runswap</title>
<path fill="none" stroke="black" d="M333.22,-130.05C331.51,-119.14 329.39,-105.61 327.68,-94.68"/>
</g>
<!-- runswap&#45;&#45;runmem -->
<g id="edge11" class="edge">
<title>runswap&#45;&#45;runmem</title>
<path fill="none" stroke="black" d="M274.96,-81.12C274.83,-81.13 274.71,-81.15 274.59,-81.16"/>
</g>
<!-- new -->
<g id="node10" class="node">
<title>new</title>
<ellipse fill="none" stroke="black" cx="283.66" cy="-19.45" rx="30.94" ry="19.45"/>
<text text-anchor="middle" x="283.66" y="-15.9" font-family="Helvetica,Arial,sans-serif" font-size="14.00">new</text>
</g>
<!-- runswap&#45;&#45;new -->
<g id="edge10" class="edge">
<title>runswap&#45;&#45;new</title>
<path fill="none" stroke="black" d="M310.5,-55.82C306.06,-49.8 301.18,-43.18 296.81,-37.26"/>
</g>
<!-- new&#45;&#45;runmem -->
<g id="edge12" class="edge">
<title>new&#45;&#45;runmem</title>
<path fill="none" stroke="black" d="M272.83,-38C267.81,-46.6 261.84,-56.83 256.77,-65.52"/>
</g>
</g>
</svg>
