<?xml version="1.0" encoding="utf-8" standalone="no"?>
<!DOCTYPE svg PUBLIC "-//W3C//DTD SVG 1.1//EN"
  "http://www.w3.org/Graphics/SVG/1.1/DTD/svg11.dtd">
<svg xmlns:xlink="http://www.w3.org/1999/xlink" width="648pt" height="432pt" viewBox="0 0 648 432" xmlns="http://www.w3.org/2000/svg" version="1.1">
 <metadata>
  <rdf:RDF xmlns:dc="http://purl.org/dc/elements/1.1/" xmlns:cc="http://creativecommons.org/ns#" xmlns:rdf="http://www.w3.org/1999/02/22-rdf-syntax-ns#">
   <cc:Work>
    <dc:type rdf:resource="http://purl.org/dc/dcmitype/StillImage"/>
    <dc:date>2022-12-31T17:31:42.628789</dc:date>
    <dc:format>image/svg+xml</dc:format>
    <dc:creator>
     <cc:Agent>
      <dc:title>Matplotlib v3.6.2, https://matplotlib.org/</dc:title>
     </cc:Agent>
    </dc:creator>
   </cc:Work>
  </rdf:RDF>
 </metadata>
 <defs>
  <style type="text/css">*{stroke-linejoin: round; stroke-linecap: butt}</style>
 </defs>
 <g id="figure_1">
  <g id="patch_1">
   <path d="M 0 432 
L 648 432 
L 648 0 
L 0 0 
L 0 432 
z
" style="fill: none"/>
  </g>
  <g id="axes_1">
   <g id="patch_2">
    <path d="M 81 384.48 
L 583.2 384.48 
L 583.2 51.84 
L 81 51.84 
L 81 384.48 
z
" style="fill: none"/>
   </g>
   <g id="matplotlib.axis_1">
    <g id="xtick_1">
     <g id="line2d_1">
      <path d="M 122.85 384.48 
L 122.85 51.84 
" clip-path="url(#p2d9ed4d479)" style="fill: none; stroke: #ffffff; stroke-linecap: round"/>
     </g>
     <g id="line2d_2"/>
     <g id="text_1">
      <!-- 0 -->
      <g style="fill: #262626" transform="translate(118.714375 401.357969) scale(0.13 -0.13)">
       <defs>
        <path id="DejaVuSans-30" d="M 2034 4250 
Q 1547 4250 1301 3770 
Q 1056 3291 1056 2328 
Q 1056 1369 1301 889 
Q 1547 409 2034 409 
Q 2525 409 2770 889 
Q 3016 1369 3016 2328 
Q 3016 3291 2770 3770 
Q 2525 4250 2034 4250 
z
M 2034 4750 
Q 2819 4750 3233 4129 
Q 3647 3509 3647 2328 
Q 3647 1150 3233 529 
Q 2819 -91 2034 -91 
Q 1250 -91 836 529 
Q 422 1150 422 2328 
Q 422 3509 836 4129 
Q 1250 4750 2034 4750 
z
" transform="scale(0.015625)"/>
       </defs>
       <use xlink:href="#DejaVuSans-30"/>
      </g>
     </g>
    </g>
    <g id="xtick_2">
     <g id="line2d_3">
      <path d="M 206.55 384.48 
L 206.55 51.84 
" clip-path="url(#p2d9ed4d479)" style="fill: none; stroke: #ffffff; stroke-linecap: round"/>
     </g>
     <g id="line2d_4"/>
     <g id="text_2">
      <!-- 2 -->
      <g style="fill: #262626" transform="translate(202.414375 401.357969) scale(0.13 -0.13)">
       <defs>
        <path id="DejaVuSans-32" d="M 1228 531 
L 3431 531 
L 3431 0 
L 469 0 
L 469 531 
Q 828 903 1448 1529 
Q 2069 2156 2228 2338 
Q 2531 2678 2651 2914 
Q 2772 3150 2772 3378 
Q 2772 3750 2511 3984 
Q 2250 4219 1831 4219 
Q 1534 4219 1204 4116 
Q 875 4013 500 3803 
L 500 4441 
Q 881 4594 1212 4672 
Q 1544 4750 1819 4750 
Q 2544 4750 2975 4387 
Q 3406 4025 3406 3419 
Q 3406 3131 3298 2873 
Q 3191 2616 2906 2266 
Q 2828 2175 2409 1742 
Q 1991 1309 1228 531 
z
" transform="scale(0.015625)"/>
       </defs>
       <use xlink:href="#DejaVuSans-32"/>
      </g>
     </g>
    </g>
    <g id="xtick_3">
     <g id="line2d_5">
      <path d="M 290.25 384.48 
L 290.25 51.84 
" clip-path="url(#p2d9ed4d479)" style="fill: none; stroke: #ffffff; stroke-linecap: round"/>
     </g>
     <g id="line2d_6"/>
     <g id="text_3">
      <!-- 4 -->
      <g style="fill: #262626" transform="translate(286.114375 401.357969) scale(0.13 -0.13)">
       <defs>
        <path id="DejaVuSans-34" d="M 2419 4116 
L 825 1625 
L 2419 1625 
L 2419 4116 
z
M 2253 4666 
L 3047 4666 
L 3047 1625 
L 3713 1625 
L 3713 1100 
L 3047 1100 
L 3047 0 
L 2419 0 
L 2419 1100 
L 313 1100 
L 313 1709 
L 2253 4666 
z
" transform="scale(0.015625)"/>
       </defs>
       <use xlink:href="#DejaVuSans-34"/>
      </g>
     </g>
    </g>
    <g id="xtick_4">
     <g id="line2d_7">
      <path d="M 373.95 384.48 
L 373.95 51.84 
" clip-path="url(#p2d9ed4d479)" style="fill: none; stroke: #ffffff; stroke-linecap: round"/>
     </g>
     <g id="line2d_8"/>
     <g id="text_4">
      <!-- 6 -->
      <g style="fill: #262626" transform="translate(369.814375 401.357969) scale(0.13 -0.13)">
       <defs>
        <path id="DejaVuSans-36" d="M 2113 2584 
Q 1688 2584 1439 2293 
Q 1191 2003 1191 1497 
Q 1191 994 1439 701 
Q 1688 409 2113 409 
Q 2538 409 2786 701 
Q 3034 994 3034 1497 
Q 3034 2003 2786 2293 
Q 2538 2584 2113 2584 
z
M 3366 4563 
L 3366 3988 
Q 3128 4100 2886 4159 
Q 2644 4219 2406 4219 
Q 1781 4219 1451 3797 
Q 1122 3375 1075 2522 
Q 1259 2794 1537 2939 
Q 1816 3084 2150 3084 
Q 2853 3084 3261 2657 
Q 3669 2231 3669 1497 
Q 3669 778 3244 343 
Q 2819 -91 2113 -91 
Q 1303 -91 875 529 
Q 447 1150 447 2328 
Q 447 3434 972 4092 
Q 1497 4750 2381 4750 
Q 2619 4750 2861 4703 
Q 3103 4656 3366 4563 
z
" transform="scale(0.015625)"/>
       </defs>
       <use xlink:href="#DejaVuSans-36"/>
      </g>
     </g>
    </g>
    <g id="xtick_5">
     <g id="line2d_9">
      <path d="M 457.65 384.48 
L 457.65 51.84 
" clip-path="url(#p2d9ed4d479)" style="fill: none; stroke: #ffffff; stroke-linecap: round"/>
     </g>
     <g id="line2d_10"/>
     <g id="text_5">
      <!-- 8 -->
      <g style="fill: #262626" transform="translate(453.514375 401.357969) scale(0.13 -0.13)">
       <defs>
        <path id="DejaVuSans-38" d="M 2034 2216 
Q 1584 2216 1326 1975 
Q 1069 1734 1069 1313 
Q 1069 891 1326 650 
Q 1584 409 2034 409 
Q 2484 409 2743 651 
Q 3003 894 3003 1313 
Q 3003 1734 2745 1975 
Q 2488 2216 2034 2216 
z
M 1403 2484 
Q 997 2584 770 2862 
Q 544 3141 544 3541 
Q 544 4100 942 4425 
Q 1341 4750 2034 4750 
Q 2731 4750 3128 4425 
Q 3525 4100 3525 3541 
Q 3525 3141 3298 2862 
Q 3072 2584 2669 2484 
Q 3125 2378 3379 2068 
Q 3634 1759 3634 1313 
Q 3634 634 3220 271 
Q 2806 -91 2034 -91 
Q 1263 -91 848 271 
Q 434 634 434 1313 
Q 434 1759 690 2068 
Q 947 2378 1403 2484 
z
M 1172 3481 
Q 1172 3119 1398 2916 
Q 1625 2713 2034 2713 
Q 2441 2713 2670 2916 
Q 2900 3119 2900 3481 
Q 2900 3844 2670 4047 
Q 2441 4250 2034 4250 
Q 1625 4250 1398 4047 
Q 1172 3844 1172 3481 
z
" transform="scale(0.015625)"/>
       </defs>
       <use xlink:href="#DejaVuSans-38"/>
      </g>
     </g>
    </g>
    <g id="xtick_6">
     <g id="line2d_11">
      <path d="M 541.35 384.48 
L 541.35 51.84 
" clip-path="url(#p2d9ed4d479)" style="fill: none; stroke: #ffffff; stroke-linecap: round"/>
     </g>
     <g id="line2d_12"/>
     <g id="text_6">
      <!-- 10 -->
      <g style="fill: #262626" transform="translate(533.07875 401.357969) scale(0.13 -0.13)">
       <defs>
        <path id="DejaVuSans-31" d="M 794 531 
L 1825 531 
L 1825 4091 
L 703 3866 
L 703 4441 
L 1819 4666 
L 2450 4666 
L 2450 531 
L 3481 531 
L 3481 0 
L 794 0 
L 794 531 
z
" transform="scale(0.015625)"/>
       </defs>
       <use xlink:href="#DejaVuSans-31"/>
       <use xlink:href="#DejaVuSans-30" x="63.623047"/>
      </g>
     </g>
    </g>
    <g id="text_7">
     <!-- $x$ -->
     <g style="fill: #262626" transform="translate(328.2 428.939531) scale(0.13 -0.13)">
      <defs>
       <path id="DejaVuSans-Oblique-78" d="M 3841 3500 
L 2234 1784 
L 3219 0 
L 2559 0 
L 1819 1388 
L 531 0 
L -166 0 
L 1556 1844 
L 641 3500 
L 1300 3500 
L 1972 2234 
L 3144 3500 
L 3841 3500 
z
" transform="scale(0.015625)"/>
      </defs>
      <use xlink:href="#DejaVuSans-Oblique-78" transform="translate(0 0.3125)"/>
     </g>
    </g>
   </g>
   <g id="matplotlib.axis_2">
    <g id="ytick_1">
     <g id="line2d_13">
      <path d="M 81 356.76 
L 583.2 356.76 
" clip-path="url(#p2d9ed4d479)" style="fill: none; stroke: #ffffff; stroke-linecap: round"/>
     </g>
     <g id="line2d_14"/>
     <g id="text_8">
      <!-- 0.0 -->
      <g style="fill: #262626" transform="translate(53.325937 361.698984) scale(0.13 -0.13)">
       <defs>
        <path id="DejaVuSans-2e" d="M 684 794 
L 1344 794 
L 1344 0 
L 684 0 
L 684 794 
z
" transform="scale(0.015625)"/>
       </defs>
       <use xlink:href="#DejaVuSans-30"/>
       <use xlink:href="#DejaVuSans-2e" x="63.623047"/>
       <use xlink:href="#DejaVuSans-30" x="95.410156"/>
      </g>
     </g>
    </g>
    <g id="ytick_2">
     <g id="line2d_15">
      <path d="M 81 301.32 
L 583.2 301.32 
" clip-path="url(#p2d9ed4d479)" style="fill: none; stroke: #ffffff; stroke-linecap: round"/>
     </g>
     <g id="line2d_16"/>
     <g id="text_9">
      <!-- 0.2 -->
      <g style="fill: #262626" transform="translate(53.325937 306.258984) scale(0.13 -0.13)">
       <use xlink:href="#DejaVuSans-30"/>
       <use xlink:href="#DejaVuSans-2e" x="63.623047"/>
       <use xlink:href="#DejaVuSans-32" x="95.410156"/>
      </g>
     </g>
    </g>
    <g id="ytick_3">
     <g id="line2d_17">
      <path d="M 81 245.88 
L 583.2 245.88 
" clip-path="url(#p2d9ed4d479)" style="fill: none; stroke: #ffffff; stroke-linecap: round"/>
     </g>
     <g id="line2d_18"/>
     <g id="text_10">
      <!-- 0.4 -->
      <g style="fill: #262626" transform="translate(53.325937 250.818984) scale(0.13 -0.13)">
       <use xlink:href="#DejaVuSans-30"/>
       <use xlink:href="#DejaVuSans-2e" x="63.623047"/>
       <use xlink:href="#DejaVuSans-34" x="95.410156"/>
      </g>
     </g>
    </g>
    <g id="ytick_4">
     <g id="line2d_19">
      <path d="M 81 190.44 
L 583.2 190.44 
" clip-path="url(#p2d9ed4d479)" style="fill: none; stroke: #ffffff; stroke-linecap: round"/>
     </g>
     <g id="line2d_20"/>
     <g id="text_11">
      <!-- 0.6 -->
      <g style="fill: #262626" transform="translate(53.325937 195.378984) scale(0.13 -0.13)">
       <use xlink:href="#DejaVuSans-30"/>
       <use xlink:href="#DejaVuSans-2e" x="63.623047"/>
       <use xlink:href="#DejaVuSans-36" x="95.410156"/>
      </g>
     </g>
    </g>
    <g id="ytick_5">
     <g id="line2d_21">
      <path d="M 81 135 
L 583.2 135 
" clip-path="url(#p2d9ed4d479)" style="fill: none; stroke: #ffffff; stroke-linecap: round"/>
     </g>
     <g id="line2d_22"/>
     <g id="text_12">
      <!-- 0.8 -->
      <g style="fill: #262626" transform="translate(53.325937 139.938984) scale(0.13 -0.13)">
       <use xlink:href="#DejaVuSans-30"/>
       <use xlink:href="#DejaVuSans-2e" x="63.623047"/>
       <use xlink:href="#DejaVuSans-38" x="95.410156"/>
      </g>
     </g>
    </g>
    <g id="ytick_6">
     <g id="line2d_23">
      <path d="M 81 79.56 
L 583.2 79.56 
" clip-path="url(#p2d9ed4d479)" style="fill: none; stroke: #ffffff; stroke-linecap: round"/>
     </g>
     <g id="line2d_24"/>
     <g id="text_13">
      <!-- 1.0 -->
      <g style="fill: #262626" transform="translate(53.325937 84.498984) scale(0.13 -0.13)">
       <use xlink:href="#DejaVuSans-31"/>
       <use xlink:href="#DejaVuSans-2e" x="63.623047"/>
       <use xlink:href="#DejaVuSans-30" x="95.410156"/>
      </g>
     </g>
    </g>
    <g id="text_14">
     <!-- $p(x)$ -->
     <g style="fill: #262626" transform="translate(35.595937 231.225) rotate(-90) scale(0.13 -0.13)">
      <defs>
       <path id="DejaVuSans-Oblique-70" d="M 3175 2156 
Q 3175 2616 2975 2859 
Q 2775 3103 2400 3103 
Q 2144 3103 1911 2972 
Q 1678 2841 1497 2591 
Q 1319 2344 1212 1994 
Q 1106 1644 1106 1300 
Q 1106 863 1306 627 
Q 1506 391 1875 391 
Q 2147 391 2380 519 
Q 2613 647 2778 891 
Q 2956 1147 3065 1494 
Q 3175 1841 3175 2156 
z
M 1394 2969 
Q 1625 3272 1939 3428 
Q 2253 3584 2638 3584 
Q 3175 3584 3472 3232 
Q 3769 2881 3769 2247 
Q 3769 1728 3584 1258 
Q 3400 788 3053 416 
Q 2822 169 2531 39 
Q 2241 -91 1919 -91 
Q 1547 -91 1294 64 
Q 1041 219 916 525 
L 556 -1331 
L -19 -1331 
L 922 3500 
L 1497 3500 
L 1394 2969 
z
" transform="scale(0.015625)"/>
       <path id="DejaVuSans-28" d="M 1984 4856 
Q 1566 4138 1362 3434 
Q 1159 2731 1159 2009 
Q 1159 1288 1364 580 
Q 1569 -128 1984 -844 
L 1484 -844 
Q 1016 -109 783 600 
Q 550 1309 550 2009 
Q 550 2706 781 3412 
Q 1013 4119 1484 4856 
L 1984 4856 
z
" transform="scale(0.015625)"/>
       <path id="DejaVuSans-29" d="M 513 4856 
L 1013 4856 
Q 1481 4119 1714 3412 
Q 1947 2706 1947 2009 
Q 1947 1309 1714 600 
Q 1481 -109 1013 -844 
L 513 -844 
Q 928 -128 1133 580 
Q 1338 1288 1338 2009 
Q 1338 2731 1133 3434 
Q 928 4138 513 4856 
z
" transform="scale(0.015625)"/>
      </defs>
      <use xlink:href="#DejaVuSans-Oblique-70" transform="translate(0 0.125)"/>
      <use xlink:href="#DejaVuSans-28" transform="translate(63.476562 0.125)"/>
      <use xlink:href="#DejaVuSans-Oblique-78" transform="translate(102.490234 0.125)"/>
      <use xlink:href="#DejaVuSans-29" transform="translate(161.669922 0.125)"/>
     </g>
    </g>
   </g>
   <g id="line2d_25">
    <path d="M 122.85 79.56 
L 131.390816 130.732283 
L 139.931633 172.457947 
L 148.472449 206.480879 
L 157.013265 234.223035 
L 165.554082 256.843873 
L 174.094898 275.288809 
L 182.635714 290.328733 
L 191.176531 302.592223 
L 199.717347 312.591822 
L 208.258163 320.745453 
L 216.79898 327.393889 
L 225.339796 332.814997 
L 233.880612 337.235345 
L 242.421429 340.839678 
L 250.962245 343.778636 
L 259.503061 346.17505 
L 268.043878 348.129076 
L 276.584694 349.722381 
L 285.12551 351.021555 
L 293.666327 352.080896 
L 302.207143 352.944678 
L 310.747959 353.649003 
L 319.288776 354.223306 
L 327.829592 354.69159 
L 336.370408 355.073427 
L 344.911224 355.384776 
L 353.452041 355.638648 
L 361.992857 355.845654 
L 370.533673 356.014446 
L 379.07449 356.152079 
L 387.615306 356.264303 
L 396.156122 356.355811 
L 404.696939 356.430426 
L 413.237755 356.491267 
L 421.778571 356.540876 
L 430.319388 356.581327 
L 438.860204 356.614311 
L 447.40102 356.641206 
L 455.941837 356.663136 
L 464.482653 356.681017 
L 473.023469 356.695598 
L 481.564286 356.707487 
L 490.105102 356.717181 
L 498.645918 356.725085 
L 507.186735 356.731531 
L 515.727551 356.736786 
L 524.268367 356.741072 
L 532.809184 356.744566 
L 541.35 356.747415 
" clip-path="url(#p2d9ed4d479)" style="fill: none; stroke: #92c6ff; stroke-width: 2.75; stroke-linecap: round"/>
   </g>
   <g id="line2d_26">
    <path d="M 122.85 79.56 
L 131.390816 172.457947 
L 139.931633 234.223035 
L 148.472449 275.288809 
L 157.013265 302.592223 
L 165.554082 320.745453 
L 174.094898 332.814997 
L 182.635714 340.839678 
L 191.176531 346.17505 
L 199.717347 349.722381 
L 208.258163 352.080896 
L 216.79898 353.649003 
L 225.339796 354.69159 
L 233.880612 355.384776 
L 242.421429 355.845654 
L 250.962245 356.152079 
L 259.503061 356.355811 
L 268.043878 356.491267 
L 276.584694 356.581327 
L 285.12551 356.641206 
L 293.666327 356.681017 
L 302.207143 356.707487 
L 310.747959 356.725085 
L 319.288776 356.736786 
L 327.829592 356.744566 
L 336.370408 356.749738 
L 344.911224 356.753177 
L 353.452041 356.755464 
L 361.992857 356.756984 
L 370.533673 356.757995 
L 379.07449 356.758667 
L 387.615306 356.759114 
L 396.156122 356.759411 
L 404.696939 356.759608 
L 413.237755 356.759739 
L 421.778571 356.759827 
L 430.319388 356.759885 
L 438.860204 356.759923 
L 447.40102 356.759949 
L 455.941837 356.759966 
L 464.482653 356.759977 
L 473.023469 356.759985 
L 481.564286 356.75999 
L 490.105102 356.759993 
L 498.645918 356.759996 
L 507.186735 356.759997 
L 515.727551 356.759998 
L 524.268367 356.759999 
L 532.809184 356.759999 
L 541.35 356.759999 
" clip-path="url(#p2d9ed4d479)" style="fill: none; stroke: #97f0aa; stroke-width: 2.75; stroke-linecap: round"/>
   </g>
   <g id="line2d_27">
    <path d="M 122.85 79.56 
L 131.390816 206.480879 
L 139.931633 275.288809 
L 148.472449 312.591822 
L 157.013265 332.814997 
L 165.554082 343.778636 
L 174.094898 349.722381 
L 182.635714 352.944678 
L 191.176531 354.69159 
L 199.717347 355.638648 
L 208.258163 356.152079 
L 216.79898 356.430426 
L 225.339796 356.581327 
L 233.880612 356.663136 
L 242.421429 356.707487 
L 250.962245 356.731531 
L 259.503061 356.744566 
L 268.043878 356.751633 
L 276.584694 356.755464 
L 285.12551 356.757541 
L 293.666327 356.758667 
L 302.207143 356.759277 
L 310.747959 356.759608 
L 319.288776 356.759788 
L 327.829592 356.759885 
L 336.370408 356.759938 
L 344.911224 356.759966 
L 353.452041 356.759982 
L 361.992857 356.75999 
L 370.533673 356.759995 
L 379.07449 356.759997 
L 387.615306 356.759998 
L 396.156122 356.759999 
L 404.696939 356.76 
L 413.237755 356.76 
L 421.778571 356.76 
L 430.319388 356.76 
L 438.860204 356.76 
L 447.40102 356.76 
L 455.941837 356.76 
L 464.482653 356.76 
L 473.023469 356.76 
L 481.564286 356.76 
L 490.105102 356.76 
L 498.645918 356.76 
L 507.186735 356.76 
L 515.727551 356.76 
L 524.268367 356.76 
L 532.809184 356.76 
L 541.35 356.76 
" clip-path="url(#p2d9ed4d479)" style="fill: none; stroke: #ff9f9a; stroke-width: 2.75; stroke-linecap: round"/>
   </g>
   <g id="patch_3">
    <path d="M 81 384.48 
L 81 51.84 
" style="fill: none"/>
   </g>
   <g id="patch_4">
    <path d="M 583.2 384.48 
L 583.2 51.84 
" style="fill: none"/>
   </g>
   <g id="patch_5">
    <path d="M 81 384.48 
L 583.2 384.48 
" style="fill: none"/>
   </g>
   <g id="patch_6">
    <path d="M 81 51.84 
L 583.2 51.84 
" style="fill: none"/>
   </g>
   <g id="legend_1">
    <g id="line2d_28">
     <path d="M 460.48 68.867969 
L 473.48 68.867969 
L 486.48 68.867969 
" style="fill: none; stroke: #92c6ff; stroke-width: 2.75; stroke-linecap: round"/>
    </g>
    <g id="text_15">
     <!-- $V(x)=-1x$ -->
     <g style="fill: #262626" transform="translate(496.88 73.417969) scale(0.13 -0.13)">
      <defs>
       <path id="DejaVuSans-Oblique-56" d="M 1319 0 
L 500 4666 
L 1119 4666 
L 1797 653 
L 4063 4666 
L 4750 4666 
L 2053 0 
L 1319 0 
z
" transform="scale(0.015625)"/>
       <path id="DejaVuSans-3d" d="M 678 2906 
L 4684 2906 
L 4684 2381 
L 678 2381 
L 678 2906 
z
M 678 1631 
L 4684 1631 
L 4684 1100 
L 678 1100 
L 678 1631 
z
" transform="scale(0.015625)"/>
       <path id="DejaVuSans-2212" d="M 678 2272 
L 4684 2272 
L 4684 1741 
L 678 1741 
L 678 2272 
z
" transform="scale(0.015625)"/>
      </defs>
      <use xlink:href="#DejaVuSans-Oblique-56" transform="translate(0 0.125)"/>
      <use xlink:href="#DejaVuSans-28" transform="translate(68.408203 0.125)"/>
      <use xlink:href="#DejaVuSans-Oblique-78" transform="translate(107.421875 0.125)"/>
      <use xlink:href="#DejaVuSans-29" transform="translate(166.601562 0.125)"/>
      <use xlink:href="#DejaVuSans-3d" transform="translate(225.097656 0.125)"/>
      <use xlink:href="#DejaVuSans-2212" transform="translate(347.851562 0.125)"/>
      <use xlink:href="#DejaVuSans-31" transform="translate(451.123047 0.125)"/>
      <use xlink:href="#DejaVuSans-Oblique-78" transform="translate(514.746094 0.125)"/>
     </g>
    </g>
    <g id="line2d_29">
     <path d="M 460.48 87.949531 
L 473.48 87.949531 
L 486.48 87.949531 
" style="fill: none; stroke: #97f0aa; stroke-width: 2.75; stroke-linecap: round"/>
    </g>
    <g id="text_16">
     <!-- $V(x)=-2x$ -->
     <g style="fill: #262626" transform="translate(496.88 92.499531) scale(0.13 -0.13)">
      <use xlink:href="#DejaVuSans-Oblique-56" transform="translate(0 0.125)"/>
      <use xlink:href="#DejaVuSans-28" transform="translate(68.408203 0.125)"/>
      <use xlink:href="#DejaVuSans-Oblique-78" transform="translate(107.421875 0.125)"/>
      <use xlink:href="#DejaVuSans-29" transform="translate(166.601562 0.125)"/>
      <use xlink:href="#DejaVuSans-3d" transform="translate(225.097656 0.125)"/>
      <use xlink:href="#DejaVuSans-2212" transform="translate(347.851562 0.125)"/>
      <use xlink:href="#DejaVuSans-32" transform="translate(451.123047 0.125)"/>
      <use xlink:href="#DejaVuSans-Oblique-78" transform="translate(514.746094 0.125)"/>
     </g>
    </g>
    <g id="line2d_30">
     <path d="M 460.48 107.031094 
L 473.48 107.031094 
L 486.48 107.031094 
" style="fill: none; stroke: #ff9f9a; stroke-width: 2.75; stroke-linecap: round"/>
    </g>
    <g id="text_17">
     <!-- $V(x)=-3x$ -->
     <g style="fill: #262626" transform="translate(496.88 111.581094) scale(0.13 -0.13)">
      <defs>
       <path id="DejaVuSans-33" d="M 2597 2516 
Q 3050 2419 3304 2112 
Q 3559 1806 3559 1356 
Q 3559 666 3084 287 
Q 2609 -91 1734 -91 
Q 1441 -91 1130 -33 
Q 819 25 488 141 
L 488 750 
Q 750 597 1062 519 
Q 1375 441 1716 441 
Q 2309 441 2620 675 
Q 2931 909 2931 1356 
Q 2931 1769 2642 2001 
Q 2353 2234 1838 2234 
L 1294 2234 
L 1294 2753 
L 1863 2753 
Q 2328 2753 2575 2939 
Q 2822 3125 2822 3475 
Q 2822 3834 2567 4026 
Q 2313 4219 1838 4219 
Q 1578 4219 1281 4162 
Q 984 4106 628 3988 
L 628 4550 
Q 988 4650 1302 4700 
Q 1616 4750 1894 4750 
Q 2613 4750 3031 4423 
Q 3450 4097 3450 3541 
Q 3450 3153 3228 2886 
Q 3006 2619 2597 2516 
z
" transform="scale(0.015625)"/>
      </defs>
      <use xlink:href="#DejaVuSans-Oblique-56" transform="translate(0 0.125)"/>
      <use xlink:href="#DejaVuSans-28" transform="translate(68.408203 0.125)"/>
      <use xlink:href="#DejaVuSans-Oblique-78" transform="translate(107.421875 0.125)"/>
      <use xlink:href="#DejaVuSans-29" transform="translate(166.601562 0.125)"/>
      <use xlink:href="#DejaVuSans-3d" transform="translate(225.097656 0.125)"/>
      <use xlink:href="#DejaVuSans-2212" transform="translate(347.851562 0.125)"/>
      <use xlink:href="#DejaVuSans-33" transform="translate(451.123047 0.125)"/>
      <use xlink:href="#DejaVuSans-Oblique-78" transform="translate(514.746094 0.125)"/>
     </g>
    </g>
   </g>
  </g>
 </g>
 <defs>
  <clipPath id="p2d9ed4d479">
   <rect x="81" y="51.84" width="502.2" height="332.64"/>
  </clipPath>
 </defs>
</svg>
