<?xml version="1.0" encoding="us-ascii" standalone="no"?><svg xmlns="http://www.w3.org/2000/svg" xmlns:xlink="http://www.w3.org/1999/xlink" contentStyleType="text/css" height="280px" preserveAspectRatio="none" style="width:657px;height:280px;" version="1.1" viewBox="0 0 657 280" width="657px" zoomAndPan="magnify"><defs/><g><polygon fill="none" points="20,10,20,10.2102,29.8,9.5857,39.6,10.1933,49.4,10.3997,59.2,9.2866,69,9.9223,78.8,9.5735,88.6,9.6165,98.4,9.9318,108.2,9.3086,118,10.5536,127.8,9.3697,137.6,9.8022,147.4,10.4319,157.2,9.9142,167,10.0682,176.8,9.9681,186.6,10.1785,196.4,10.2391,206.2,10.5857,216,10.6711,225.8,10.6793,235.6,10.2546,245.4,10.4636,255.2,10.7022,265,10,264.908,9.7779,266.5008,10.7947,267.7906,11.0803,269.3107,11.9218,270.5937,12.1907,272.0711,12.9289,272.05,12.9202,272.8852,14.4377,273.2276,15.7511,273.8609,17.185,274.5185,18.629,275,20,275.4162,20,274.9961,30.1054,275.2872,40.2108,274.4276,50.3162,275.2844,60.4215,275.5482,70.5269,275.4445,80.6323,275.613,90.7377,274.5169,100.8431,274.3478,110.9485,274.3786,121.0539,274.9411,131.1593,274.8035,141.2646,275.6814,151.37,275,161.4754,274.9462,161.4531,274.3086,162.8459,273.8987,164.333,273.0373,165.633,272.497,167.0661,272.0711,168.5465,272.1538,168.7463,270.7124,169.2664,269.3363,169.9443,267.7874,170.2047,266.4549,170.9879,265,171.4754,265,172.0658,255.2,171.003,245.4,171.3796,235.6,171.6014,225.8,172.1272,216,171.4712,206.2,171.938,196.4,170.9216,186.6,170.7982,176.8,171.979,167,170.7585,157.2,171.9844,147.4,171.682,137.6,171.2075,127.8,171.1216,118,171.9342,108.2,171.1761,98.4,172.0673,88.6,170.9227,78.8,172.0928,69,171.9597,59.2,171.7204,49.4,171.5226,39.6,172.202,29.8,172.089,20,171.4754,20.0216,171.5275,18.62,170.9722,17.155,170.2637,15.8488,169.9387,14.3629,169.18,12.9289,168.5465,12.9821,168.5685,12.1558,167.0547,11.6326,165.6664,11.335,164.3715,10.7181,162.9445,10,161.4754,9.9571,161.4754,9.6778,151.37,9.7811,141.2646,9.3138,131.1593,10.4147,121.0539,10.7396,110.9485,10.5264,100.8431,10.6949,90.7377,9.8633,80.6323,10.0872,70.5269,9.6124,60.4215,10.284,50.3162,10.2468,40.2108,10.5524,30.1054,10,20,9.9293,19.9707,10.5444,18.5686,11.3081,17.2281,11.9321,15.8297,12.1853,14.2778,12.9289,12.9289,12.9042,12.8692,14.3622,12.3891,15.6794,11.5692,17.2167,11.2804,18.6187,10.6652,20,10" style="stroke:none;stroke-width:1.0;"/><text fill="#2E2E2E" font-family="sans-serif" font-size="14" font-weight="bold" lengthAdjust="spacing" textLength="26" x="15" y="26.9659">doe</text><text fill="#2E2E2E" font-family="sans-serif" font-size="14" lengthAdjust="spacing" textLength="144" x="126" y="26.9659">a deer, a female deer</text><path d="M121,10 L121.0934,10 L120.8159,14.6136 L121.0859,19.2272 L121.1776,23.8408 L120.6829,28.4543 L121,33.0679 " fill="none" style="stroke:#2E2E2E;stroke-width:1.0;"/><path d="M10,33.0679 L10,33.3482 L19.8148,32.5155 L29.6296,33.3256 L39.4444,33.6008 L49.2593,32.1167 L59.0741,32.9643 L68.8889,32.4993 L78.7037,32.5566 L88.5185,32.977 L98.3333,32.1461 L108.1481,33.8061 L117.963,32.2275 L127.7778,32.8042 L137.5926,33.6438 L147.4074,32.9535 L157.2222,33.1589 L167.037,33.0253 L176.8519,33.306 L186.6667,33.3868 L196.4815,33.8488 L206.2963,33.9627 L216.1111,33.9736 L225.9259,33.4074 L235.7407,33.686 L245.5556,34.0042 L255.3704,32.1063 L265.1852,33.9726 L275,33.0679 " fill="none" style="stroke:#2E2E2E;stroke-width:1.0;"/><text fill="#2E2E2E" font-family="sans-serif" font-size="14" font-weight="bold" lengthAdjust="spacing" textLength="22" x="15" y="50.0339">ray</text><text fill="#2E2E2E" font-family="sans-serif" font-size="14" lengthAdjust="spacing" textLength="141" x="126" y="50.0339">a drop of golden sun</text><path d="M121,33.0679 L121.0934,33.0679 L120.8159,37.6815 L121.0859,42.2951 L121.1776,46.9087 L120.6829,51.5223 L121,56.1358 " fill="none" style="stroke:#2E2E2E;stroke-width:1.0;"/><path d="M10,56.1358 L10,56.4161 L19.8148,55.5834 L29.6296,56.3935 L39.4444,56.6687 L49.2593,55.1846 L59.0741,56.0322 L68.8889,55.5672 L78.7037,55.6245 L88.5185,56.045 L98.3333,55.214 L108.1481,56.874 L117.963,55.2955 L127.7778,55.8721 L137.5926,56.7118 L147.4074,56.0215 L157.2222,56.2268 L167.037,56.0932 L176.8519,56.3739 L186.6667,56.4547 L196.4815,56.9168 L206.2963,57.0306 L216.1111,57.0415 L225.9259,56.4753 L235.7407,56.7539 L245.5556,57.0721 L255.3704,55.1743 L265.1852,57.0405 L275,56.1358 " fill="none" style="stroke:#2E2E2E;stroke-width:1.0;"/><text fill="#2E2E2E" font-family="sans-serif" font-size="14" font-weight="bold" lengthAdjust="spacing" textLength="13" x="15" y="73.1018">pi</text><text fill="#2E2E2E" font-family="sans-serif" font-size="14" lengthAdjust="spacing" textLength="52" x="126" y="73.1018">3.14159</text><path d="M121,56.1358 L121.0934,56.1358 L120.8159,60.7494 L121.0859,65.363 L121.1776,69.9766 L120.6829,74.5902 L121,79.2038 " fill="none" style="stroke:#2E2E2E;stroke-width:1.0;"/><path d="M10,79.2038 L10,79.484 L19.8148,78.6513 L29.6296,79.4615 L39.4444,79.7367 L49.2593,78.2526 L59.0741,79.1001 L68.8889,78.6351 L78.7037,78.6924 L88.5185,79.1129 L98.3333,78.2819 L108.1481,79.9419 L117.963,78.3634 L127.7778,78.9401 L137.5926,79.7797 L147.4074,79.0894 L157.2222,79.2947 L167.037,79.1612 L176.8519,79.4418 L186.6667,79.5226 L196.4815,79.9847 L206.2963,80.0985 L216.1111,80.1094 L225.9259,79.5433 L235.7407,79.8219 L245.5556,80.1401 L255.3704,78.2422 L265.1852,80.1084 L275,79.2038 " fill="none" style="stroke:#2E2E2E;stroke-width:1.0;"/><text fill="#2E2E2E" font-family="sans-serif" font-size="14" font-weight="bold" lengthAdjust="spacing" textLength="37" x="15" y="96.1697">xmas</text><text fill="#2E2E2E" font-family="sans-serif" font-size="14" lengthAdjust="spacing" textLength="28" x="126" y="96.1697">true</text><path d="M121,79.2038 L121.0934,79.2038 L120.8159,83.8173 L121.0859,88.4309 L121.1776,93.0445 L120.6829,97.6581 L121,102.2717 " fill="none" style="stroke:#2E2E2E;stroke-width:1.0;"/><path d="M10,102.2717 L10,102.5519 L19.8148,101.7192 L29.6296,102.5294 L39.4444,102.8046 L49.2593,101.3205 L59.0741,102.1681 L68.8889,101.703 L78.7037,101.7603 L88.5185,102.1808 L98.3333,101.3498 L108.1481,103.0099 L117.963,101.4313 L127.7778,102.008 L137.5926,102.8476 L147.4074,102.1573 L157.2222,102.3627 L167.037,102.2291 L176.8519,102.5097 L186.6667,102.5905 L196.4815,103.0526 L206.2963,103.1664 L216.1111,103.1773 L225.9259,102.6112 L235.7407,102.8898 L245.5556,103.208 L255.3704,101.3101 L265.1852,103.1763 L275,102.2717 " fill="none" style="stroke:#2E2E2E;stroke-width:1.0;"/><text fill="#2E2E2E" font-family="sans-serif" font-size="14" font-weight="bold" lengthAdjust="spacing" textLength="82" x="15" y="119.2376">french-hens</text><text fill="#2E2E2E" font-family="sans-serif" font-size="14" lengthAdjust="spacing" textLength="8" x="126" y="119.2376">3</text><path d="M121,102.2717 L121.0934,102.2717 L120.8159,106.8853 L121.0859,111.4988 L121.1776,116.1124 L120.6829,120.726 L121,125.3396 " fill="none" style="stroke:#2E2E2E;stroke-width:1.0;"/><path d="M10,125.3396 L10,125.6198 L19.8148,124.7872 L29.6296,125.5973 L39.4444,125.8725 L49.2593,124.3884 L59.0741,125.236 L68.8889,124.7709 L78.7037,124.8283 L88.5185,125.2487 L98.3333,124.4178 L108.1481,126.0778 L117.963,124.4992 L127.7778,125.0759 L137.5926,125.9155 L147.4074,125.2252 L157.2222,125.4306 L167.037,125.297 L176.8519,125.5776 L186.6667,125.6584 L196.4815,126.1205 L206.2963,126.2343 L216.1111,126.2453 L225.9259,125.6791 L235.7407,125.9577 L245.5556,126.2759 L255.3704,124.378 L265.1852,126.2443 L275,125.3396 " fill="none" style="stroke:#2E2E2E;stroke-width:1.0;"/><text fill="#2E2E2E" font-family="sans-serif" font-size="14" font-weight="bold" lengthAdjust="spacing" textLength="85" x="15" y="142.3055">calling-birds</text><text fill="#2E2E2E" font-family="sans-serif" font-size="14" lengthAdjust="spacing" textLength="12" x="126" y="142.3055">&#160;&#160;&#160;</text><path d="M121,125.3396 L121.0934,125.3396 L120.8159,129.9532 L121.0859,134.5668 L121.1776,139.1803 L120.6829,143.7939 L121,148.4075 " fill="none" style="stroke:#2E2E2E;stroke-width:1.0;"/><path d="M10,148.4075 L10,148.6877 L19.8148,147.8551 L29.6296,148.6652 L39.4444,148.9404 L49.2593,147.4563 L59.0741,148.3039 L68.8889,147.8388 L78.7037,147.8962 L88.5185,148.3166 L98.3333,147.4857 L108.1481,149.1457 L117.963,147.5671 L127.7778,148.1438 L137.5926,148.9834 L147.4074,148.2931 L157.2222,148.4985 L167.037,148.3649 L176.8519,148.6455 L186.6667,148.7263 L196.4815,149.1884 L206.2963,149.3022 L216.1111,149.3132 L225.9259,148.747 L235.7407,149.0256 L245.5556,149.3438 L255.3704,147.4459 L265.1852,149.3122 L275,148.4075 " fill="none" style="stroke:#2E2E2E;stroke-width:1.0;"/><text fill="#2E2E2E" font-family="sans-serif" font-size="14" font-weight="bold" lengthAdjust="spacing" textLength="101" x="15" y="165.3734">xmas-fifth-day</text><text fill="#2E2E2E" font-family="sans-serif" font-size="14" lengthAdjust="spacing" textLength="12" x="126" y="165.3734">&#160;&#160;&#160;</text><path d="M121,148.4075 L121.0934,148.4075 L120.8159,153.0211 L121.0859,157.6347 L121.1776,162.2483 L120.6829,166.8618 L121,171.4754 " fill="none" style="stroke:#2E2E2E;stroke-width:1.0;"/><polygon fill="none" points="20,10,20,10.2102,29.8,9.5857,39.6,10.1933,49.4,10.3997,59.2,9.2866,69,9.9223,78.8,9.5735,88.6,9.6165,98.4,9.9318,108.2,9.3086,118,10.5536,127.8,9.3697,137.6,9.8022,147.4,10.4319,157.2,9.9142,167,10.0682,176.8,9.9681,186.6,10.1785,196.4,10.2391,206.2,10.5857,216,10.6711,225.8,10.6793,235.6,10.2546,245.4,10.4636,255.2,10.7022,265,10,264.908,9.7779,266.5008,10.7947,267.7906,11.0803,269.3107,11.9218,270.5937,12.1907,272.0711,12.9289,272.05,12.9202,272.8852,14.4377,273.2276,15.7511,273.8609,17.185,274.5185,18.629,275,20,275.4162,20,274.9961,30.1054,275.2872,40.2108,274.4276,50.3162,275.2844,60.4215,275.5482,70.5269,275.4445,80.6323,275.613,90.7377,274.5169,100.8431,274.3478,110.9485,274.3786,121.0539,274.9411,131.1593,274.8035,141.2646,275.6814,151.37,275,161.4754,274.9462,161.4531,274.3086,162.8459,273.8987,164.333,273.0373,165.633,272.497,167.0661,272.0711,168.5465,272.1538,168.7463,270.7124,169.2664,269.3363,169.9443,267.7874,170.2047,266.4549,170.9879,265,171.4754,265,172.0658,255.2,171.003,245.4,171.3796,235.6,171.6014,225.8,172.1272,216,171.4712,206.2,171.938,196.4,170.9216,186.6,170.7982,176.8,171.979,167,170.7585,157.2,171.9844,147.4,171.682,137.6,171.2075,127.8,171.1216,118,171.9342,108.2,171.1761,98.4,172.0673,88.6,170.9227,78.8,172.0928,69,171.9597,59.2,171.7204,49.4,171.5226,39.6,172.202,29.8,172.089,20,171.4754,20.0216,171.5275,18.62,170.9722,17.155,170.2637,15.8488,169.9387,14.3629,169.18,12.9289,168.5465,12.9821,168.5685,12.1558,167.0547,11.6326,165.6664,11.335,164.3715,10.7181,162.9445,10,161.4754,9.9571,161.4754,9.6778,151.37,9.7811,141.2646,9.3138,131.1593,10.4147,121.0539,10.7396,110.9485,10.5264,100.8431,10.6949,90.7377,9.8633,80.6323,10.0872,70.5269,9.6124,60.4215,10.284,50.3162,10.2468,40.2108,10.5524,30.1054,10,20,9.9293,19.9707,10.5444,18.5686,11.3081,17.2281,11.9321,15.8297,12.1853,14.2778,12.9289,12.9289,12.9042,12.8692,14.3622,12.3891,15.6794,11.5692,17.2167,11.2804,18.6187,10.6652,20,10" style="stroke:#2E2E2E;stroke-width:1.0;"/><polygon fill="none" points="363.5,41.6019,363.5,41.6719,370.1,41.4638,376.7,41.6663,383.3,41.7351,389.9,41.3641,396.5,41.6019,396.4901,41.5779,397.8598,42.0563,399.2795,42.6553,400.7339,43.3382,402.0687,43.7321,403.5711,44.5308,403.7416,44.6014,403.9628,45.8646,404.6817,47.334,405.4614,48.8285,405.8878,50.1767,406.5,51.6019,406.5682,51.6019,406.4681,61.9264,406.6785,72.2509,406.7391,82.5754,407.0857,92.9,407.1711,103.2245,407.1793,113.549,406.5,123.8735,406.5784,123.906,406.057,125.3469,405.5447,126.7915,404.5205,128.0242,404.3658,129.6169,403.5711,130.9446,403.5332,130.8533,402.2249,131.6948,400.6795,131.9637,399.3197,132.6809,398.0088,133.5161,396.5,133.8735,396.5,133.8573,389.9,133.9086,383.3,133.9864,376.7,134.0123,370.1,133.8722,363.5,133.8735,363.5366,133.962,362.0128,133.1115,360.7078,132.7895,359.3273,132.285,357.8999,131.6673,356.4289,130.9446,356.6177,131.0228,355.6944,129.4688,355.0565,128.033,354.4802,126.6227,354.0677,125.2802,353.5,123.8735,353.3035,123.8735,354.1814,113.549,353.3253,103.2245,353.1569,92.9,353.7283,82.5754,352.8332,72.2509,352.9809,61.9264,353.5,51.6019,353.6999,51.6847,354.22,50.2432,354.8978,48.8671,355.1583,47.3182,355.9414,45.9857,356.4289,44.5308,356.5042,44.7126,357.7829,43.7995,359.2451,43.3297,360.6876,42.8122,362.1689,42.3884,363.5,41.6019" style="stroke:none;stroke-width:1.0;"/><text fill="#2E2E2E" font-family="sans-serif" font-size="14" lengthAdjust="spacing" textLength="33" x="358.5" y="58.5678">huey</text><path d="M353.5,64.6698 L353.5,64.95 L364.1,64.1174 L374.7,64.9275 L385.3,65.2027 L395.9,63.7186 L406.5,64.6698 " fill="none" style="stroke:#2E2E2E;stroke-width:1.0;"/><text fill="#2E2E2E" font-family="sans-serif" font-size="14" lengthAdjust="spacing" textLength="43" x="358.5" y="81.6357">dewey</text><path d="M353.5,87.7377 L353.5,88.018 L364.1,87.1853 L374.7,87.9954 L385.3,88.2706 L395.9,86.7865 L406.5,87.7377 " fill="none" style="stroke:#2E2E2E;stroke-width:1.0;"/><text fill="#2E2E2E" font-family="sans-serif" font-size="14" lengthAdjust="spacing" textLength="33" x="358.5" y="104.7036">louie</text><path d="M353.5,110.8056 L353.5,111.0859 L364.1,110.2532 L374.7,111.0633 L385.3,111.3385 L395.9,109.8544 L406.5,110.8056 " fill="none" style="stroke:#2E2E2E;stroke-width:1.0;"/><text fill="#2E2E2E" font-family="sans-serif" font-size="14" lengthAdjust="spacing" textLength="28" x="358.5" y="127.7716">fred</text><polygon fill="none" points="363.5,41.6019,363.5,41.6719,370.1,41.4638,376.7,41.6663,383.3,41.7351,389.9,41.3641,396.5,41.6019,396.4901,41.5779,397.8598,42.0563,399.2795,42.6553,400.7339,43.3382,402.0687,43.7321,403.5711,44.5308,403.7416,44.6014,403.9628,45.8646,404.6817,47.334,405.4614,48.8285,405.8878,50.1767,406.5,51.6019,406.5682,51.6019,406.4681,61.9264,406.6785,72.2509,406.7391,82.5754,407.0857,92.9,407.1711,103.2245,407.1793,113.549,406.5,123.8735,406.5784,123.906,406.057,125.3469,405.5447,126.7915,404.5205,128.0242,404.3658,129.6169,403.5711,130.9446,403.5332,130.8533,402.2249,131.6948,400.6795,131.9637,399.3197,132.6809,398.0088,133.5161,396.5,133.8735,396.5,133.8573,389.9,133.9086,383.3,133.9864,376.7,134.0123,370.1,133.8722,363.5,133.8735,363.5366,133.962,362.0128,133.1115,360.7078,132.7895,359.3273,132.285,357.8999,131.6673,356.4289,130.9446,356.6177,131.0228,355.6944,129.4688,355.0565,128.033,354.4802,126.6227,354.0677,125.2802,353.5,123.8735,353.3035,123.8735,354.1814,113.549,353.3253,103.2245,353.1569,92.9,353.7283,82.5754,352.8332,72.2509,352.9809,61.9264,353.5,51.6019,353.6999,51.6847,354.22,50.2432,354.8978,48.8671,355.1583,47.3182,355.9414,45.9857,356.4289,44.5308,356.5042,44.7126,357.7829,43.7995,359.2451,43.3297,360.6876,42.8122,362.1689,42.3884,363.5,41.6019" style="stroke:#2E2E2E;stroke-width:1.0;"/><polygon fill="none" points="322,152.0679,322,152.2781,331.6667,151.6536,341.3333,152.2612,351,152.4676,360.6667,151.3545,370.3333,151.9902,380,151.6414,389.6667,151.6844,399.3333,151.9998,409,151.3765,418.6667,152.6216,428.3333,151.4376,438,152.0679,437.9748,152.007,439.4693,152.7867,440.8175,153.2131,442.2513,153.8463,443.6528,154.4012,445.0711,154.9968,445.126,155.0196,445.7305,156.4416,446.423,157.9,447.0351,159.3251,447.6234,160.7404,448,162.0679,448.2546,162.0679,448.4636,171.6019,448.7022,181.1358,447.2788,190.6698,448.6785,200.2038,447.7035,209.7377,448.5338,219.2717,447.505,228.8056,447.9315,238.3396,448.7416,247.8735,448,257.4075,447.985,257.4013,447.4466,258.8351,446.9327,260.2791,446.3708,261.7032,445.6557,263.0639,445.0711,264.4786,445.1077,264.567,443.5838,264.8881,442.2789,265.7377,440.8984,266.4048,439.4709,266.9586,438,267.4075,438,268.0205,428.3333,266.9244,418.6667,266.7553,409,266.7861,399.3333,267.3486,389.6667,267.211,380,268.0889,370.3333,267.2328,360.6667,267.0644,351,267.6358,341.3333,266.7407,331.6667,266.8884,322,267.4075,322.0828,267.6074,320.6414,266.9559,319.2653,266.4621,317.7163,265.551,316.3839,265.1627,314.9289,264.4786,315.1108,264.5539,314.1977,263.0041,313.7278,261.6379,313.2104,260.252,312.7865,258.9049,312,257.4075,311.9958,257.4075,312.4626,247.8735,311.4462,238.3396,311.3227,228.8056,312.5036,219.2717,311.2831,209.7377,312.509,200.2038,312.2066,190.6698,311.7321,181.1358,311.6462,171.6019,312,162.0679,312.1413,162.1264,312.4936,160.6155,313.3538,159.315,313.5871,157.7548,314.5333,156.4898,314.9289,154.9968,314.9907,155.146,316.3744,154.4865,317.7634,153.8398,319.2643,153.4633,320.6641,152.8427,322,152.0679" style="stroke:none;stroke-width:1.0;"/><text fill="#2E2E2E" font-family="sans-serif" font-size="14" font-weight="bold" lengthAdjust="spacing" textLength="85" x="317" y="169.0339">calling-birds</text><text fill="#2E2E2E" font-family="sans-serif" font-size="14" lengthAdjust="spacing" textLength="28" x="415" y="169.0339">four</text><path d="M410,152.0679 L410.0934,152.0679 L409.8159,156.6815 L410.0859,161.2951 L410.1776,165.9087 L409.6829,170.5223 L410,175.1358 " fill="none" style="stroke:#2E2E2E;stroke-width:1.0;"/><path d="M312,175.1358 L312,175.4161 L321.7143,174.5834 L331.4286,175.3935 L341.1429,175.6687 L350.8571,174.1846 L360.5714,175.0322 L370.2857,174.5672 L380,174.6245 L389.7143,175.045 L399.4286,174.214 L409.1429,175.874 L418.8571,174.2955 L428.5714,174.8721 L438.2857,175.7118 L448,175.1358 " fill="none" style="stroke:#2E2E2E;stroke-width:1.0;"/><text fill="#2E2E2E" font-family="sans-serif" font-size="14" font-weight="bold" lengthAdjust="spacing" textLength="82" x="317" y="192.1018">french-hens</text><text fill="#2E2E2E" font-family="sans-serif" font-size="14" lengthAdjust="spacing" textLength="8" x="415" y="192.1018">3</text><path d="M410,175.1358 L410.0934,175.1358 L409.8159,179.7494 L410.0859,184.363 L410.1776,188.9766 L409.6829,193.5902 L410,198.2038 " fill="none" style="stroke:#2E2E2E;stroke-width:1.0;"/><path d="M312,198.2038 L312,198.484 L321.7143,197.6513 L331.4286,198.4615 L341.1429,198.7367 L350.8571,197.2526 L360.5714,198.1001 L370.2857,197.6351 L380,197.6924 L389.7143,198.1129 L399.4286,197.2819 L409.1429,198.9419 L418.8571,197.3634 L428.5714,197.9401 L438.2857,198.7797 L448,198.2038 " fill="none" style="stroke:#2E2E2E;stroke-width:1.0;"/><text fill="#2E2E2E" font-family="sans-serif" font-size="14" font-weight="bold" lengthAdjust="spacing" textLength="88" x="317" y="215.1697">golden-rings</text><text fill="#2E2E2E" font-family="sans-serif" font-size="14" lengthAdjust="spacing" textLength="8" x="415" y="215.1697">5</text><path d="M410,198.2038 L410.0934,198.2038 L409.8159,202.8173 L410.0859,207.4309 L410.1776,212.0445 L409.6829,216.6581 L410,221.2717 " fill="none" style="stroke:#2E2E2E;stroke-width:1.0;"/><path d="M312,221.2717 L312,221.5519 L321.7143,220.7192 L331.4286,221.5294 L341.1429,221.8046 L350.8571,220.3205 L360.5714,221.1681 L370.2857,220.703 L380,220.7603 L389.7143,221.1808 L399.4286,220.3498 L409.1429,222.0099 L418.8571,220.4313 L428.5714,221.008 L438.2857,221.8476 L448,221.2717 " fill="none" style="stroke:#2E2E2E;stroke-width:1.0;"/><text fill="#2E2E2E" font-family="sans-serif" font-size="14" font-weight="bold" lengthAdjust="spacing" textLength="72" x="317" y="238.2376">partridges</text><text fill="#2E2E2E" font-family="sans-serif" font-size="14" lengthAdjust="spacing" textLength="12" x="415" y="238.2376">&#160;&#160;&#160;</text><path d="M410,221.2717 L410.0934,221.2717 L409.8159,225.8853 L410.0859,230.4988 L410.1776,235.1124 L409.6829,239.726 L410,244.3396 " fill="none" style="stroke:#2E2E2E;stroke-width:1.0;"/><path d="M312,244.3396 L312,244.6198 L321.7143,243.7872 L331.4286,244.5973 L341.1429,244.8725 L350.8571,243.3884 L360.5714,244.236 L370.2857,243.7709 L380,243.8283 L389.7143,244.2487 L399.4286,243.4178 L409.1429,245.0778 L418.8571,243.4992 L428.5714,244.0759 L438.2857,244.9155 L448,244.3396 " fill="none" style="stroke:#2E2E2E;stroke-width:1.0;"/><text fill="#2E2E2E" font-family="sans-serif" font-size="14" font-weight="bold" lengthAdjust="spacing" textLength="85" x="317" y="261.3055">turtle-doves</text><text fill="#2E2E2E" font-family="sans-serif" font-size="14" lengthAdjust="spacing" textLength="24" x="415" y="261.3055">two</text><path d="M410,244.3396 L410.0934,244.3396 L409.8159,248.9532 L410.0859,253.5668 L410.1776,258.1803 L409.6829,262.7939 L410,267.4075 " fill="none" style="stroke:#2E2E2E;stroke-width:1.0;"/><polygon fill="none" points="322,152.0679,322,152.2781,331.6667,151.6536,341.3333,152.2612,351,152.4676,360.6667,151.3545,370.3333,151.9902,380,151.6414,389.6667,151.6844,399.3333,151.9998,409,151.3765,418.6667,152.6216,428.3333,151.4376,438,152.0679,437.9748,152.007,439.4693,152.7867,440.8175,153.2131,442.2513,153.8463,443.6528,154.4012,445.0711,154.9968,445.126,155.0196,445.7305,156.4416,446.423,157.9,447.0351,159.3251,447.6234,160.7404,448,162.0679,448.2546,162.0679,448.4636,171.6019,448.7022,181.1358,447.2788,190.6698,448.6785,200.2038,447.7035,209.7377,448.5338,219.2717,447.505,228.8056,447.9315,238.3396,448.7416,247.8735,448,257.4075,447.985,257.4013,447.4466,258.8351,446.9327,260.2791,446.3708,261.7032,445.6557,263.0639,445.0711,264.4786,445.1077,264.567,443.5838,264.8881,442.2789,265.7377,440.8984,266.4048,439.4709,266.9586,438,267.4075,438,268.0205,428.3333,266.9244,418.6667,266.7553,409,266.7861,399.3333,267.3486,389.6667,267.211,380,268.0889,370.3333,267.2328,360.6667,267.0644,351,267.6358,341.3333,266.7407,331.6667,266.8884,322,267.4075,322.0828,267.6074,320.6414,266.9559,319.2653,266.4621,317.7163,265.551,316.3839,265.1627,314.9289,264.4786,315.1108,264.5539,314.1977,263.0041,313.7278,261.6379,313.2104,260.252,312.7865,258.9049,312,257.4075,311.9958,257.4075,312.4626,247.8735,311.4462,238.3396,311.3227,228.8056,312.5036,219.2717,311.2831,209.7377,312.509,200.2038,312.2066,190.6698,311.7321,181.1358,311.6462,171.6019,312,162.0679,312.1413,162.1264,312.4936,160.6155,313.3538,159.315,313.5871,157.7548,314.5333,156.4898,314.9289,154.9968,314.9907,155.146,316.3744,154.4865,317.7634,153.8398,319.2643,153.4633,320.6641,152.8427,322,152.0679" style="stroke:#2E2E2E;stroke-width:1.0;"/><polygon fill="none" points="495,209.6698,495,209.88,505,209.2555,515,209.8631,525,210.0695,535,208.9564,545,209.5921,555,209.2433,565,209.2863,575,209.6016,585,208.9784,595,210.2234,605,209.0395,615,209.472,625,209.6698,625.0551,209.8028,626.4033,210.2292,627.8371,210.8624,629.2386,211.4173,630.6796,212.0679,632.0711,212.5987,632.1447,212.6292,632.8372,214.0876,633.4493,215.5128,634.0376,216.928,634.4926,218.2881,635,219.6698,635.1545,219.6698,635.2341,224.897,634.7596,230.1241,635.2262,235.3513,634.9012,240.5785,635,245.8056,635.1644,245.8737,634.2618,247.1567,633.8073,248.6253,633.471,250.1429,632.6418,251.4563,632.0711,252.8767,632.0845,252.9091,630.7001,253.5668,629.2957,254.1764,627.8279,254.6329,626.4509,255.3083,625,255.8056,625,255.2332,615,256.09,605,256.3538,595,256.2502,585,256.4187,575,255.3225,565,255.1534,555,255.1842,545,255.7467,535,255.6091,525,256.487,515,255.6309,505,255.4626,495,255.8056,495.0291,255.8759,493.5007,255.0145,492.1054,254.4742,490.8401,254.2481,489.3987,253.5966,487.9289,252.8767,488.1551,252.9704,487.244,251.4214,486.8557,250.089,486.3534,248.7094,485.4403,247.1596,485,245.8056,484.968,245.8056,485.042,240.5785,485.2173,235.3513,484.9986,230.1241,485.1542,224.897,485,219.6698,484.8295,219.5992,485.3772,218.1692,486.3267,216.9056,486.5366,215.3357,487.4999,214.0779,487.9289,212.5987,487.9553,212.6624,489.309,211.9304,490.7122,211.3182,492.2301,210.9826,493.5476,210.1634,495,209.6698" style="stroke:none;stroke-width:1.0;"/><text fill="#2E2E2E" font-family="sans-serif" font-size="14" font-weight="bold" lengthAdjust="spacing" textLength="40" x="490" y="226.6357">count</text><text fill="#2E2E2E" font-family="sans-serif" font-size="14" lengthAdjust="spacing" textLength="8" x="556" y="226.6357">1</text><path d="M551,209.6698 L551.0934,209.6698 L550.8159,214.2834 L551.0859,218.897 L551.1776,223.5105 L550.6829,228.1241 L551,232.7377 " fill="none" style="stroke:#2E2E2E;stroke-width:1.0;"/><path d="M485,232.7377 L485,233.018 L495,232.1853 L505,232.9954 L515,233.2706 L525,231.7865 L535,232.6341 L545,232.1691 L555,232.2264 L565,232.6468 L575,231.8159 L585,233.4759 L595,231.8973 L605,232.474 L615,233.3136 L625,232.6233 L635,232.7377 " fill="none" style="stroke:#2E2E2E;stroke-width:1.0;"/><text fill="#2E2E2E" font-family="sans-serif" font-size="14" font-weight="bold" lengthAdjust="spacing" textLength="56" x="490" y="249.7036">location</text><text fill="#2E2E2E" font-family="sans-serif" font-size="14" lengthAdjust="spacing" textLength="74" x="556" y="249.7036">a pear tree</text><path d="M551,232.7377 L551.0934,232.7377 L550.8159,237.3513 L551.0859,241.9649 L551.1776,246.5785 L550.6829,251.192 L551,255.8056 " fill="none" style="stroke:#2E2E2E;stroke-width:1.0;"/><polygon fill="none" points="495,209.6698,495,209.88,505,209.2555,515,209.8631,525,210.0695,535,208.9564,545,209.5921,555,209.2433,565,209.2863,575,209.6016,585,208.9784,595,210.2234,605,209.0395,615,209.472,625,209.6698,625.0551,209.8028,626.4033,210.2292,627.8371,210.8624,629.2386,211.4173,630.6796,212.0679,632.0711,212.5987,632.1447,212.6292,632.8372,214.0876,633.4493,215.5128,634.0376,216.928,634.4926,218.2881,635,219.6698,635.1545,219.6698,635.2341,224.897,634.7596,230.1241,635.2262,235.3513,634.9012,240.5785,635,245.8056,635.1644,245.8737,634.2618,247.1567,633.8073,248.6253,633.471,250.1429,632.6418,251.4563,632.0711,252.8767,632.0845,252.9091,630.7001,253.5668,629.2957,254.1764,627.8279,254.6329,626.4509,255.3083,625,255.8056,625,255.2332,615,256.09,605,256.3538,595,256.2502,585,256.4187,575,255.3225,565,255.1534,555,255.1842,545,255.7467,535,255.6091,525,256.487,515,255.6309,505,255.4626,495,255.8056,495.0291,255.8759,493.5007,255.0145,492.1054,254.4742,490.8401,254.2481,489.3987,253.5966,487.9289,252.8767,488.1551,252.9704,487.244,251.4214,486.8557,250.089,486.3534,248.7094,485.4403,247.1596,485,245.8056,484.968,245.8056,485.042,240.5785,485.2173,235.3513,484.9986,230.1241,485.1542,224.897,485,219.6698,484.8295,219.5992,485.3772,218.1692,486.3267,216.9056,486.5366,215.3357,487.4999,214.0779,487.9289,212.5987,487.9553,212.6624,489.309,211.9304,490.7122,211.3182,492.2301,210.9826,493.5476,210.1634,495,209.6698" style="stroke:#2E2E2E;stroke-width:1.0;"/><path d="M263,136.7377 L263,136.9245 L265.6,136.3694 L268.2,136.9095 L270.8,137.093 L273.4,136.1036 L276,136.7377 L276,136.7377 L275.9962,136.7034 L279.8316,136.1196 L283.6863,135.7088 L287.5544,135.4183 L291.3763,134.7133 L295.2629,134.5889 L295.3339,134.8245 L298.936,133.1895 L302.7453,132.2423 L306.58,131.3791 L310.2675,130.0276 L314.0324,128.9329 L314.0449,128.9605 L317.5503,127.3245 L321.1127,125.8143 L324.6475,124.2434 L328.2348,122.7882 L331.6512,120.9556 L331.8002,121.214 L334.9642,119.3947 L338.0321,117.4086 L341.2407,115.6665 L344.4558,113.9359 L347.4621,111.8429 " fill="none" style="stroke:#2E2E2E;stroke-width:1.0;stroke-dasharray:3.0,3.0;"/><path d="M349.1322,114.3947 L349.3186,114.4066 L348.8134,113.6103 L349.4011,112.884 L349.633,112.1348 L348.6944,111.3107 L349.3759,110.5904 L349.3524,110.5255 L348.53,109.9742 L347.8262,109.7503 L347.205,109.7539 L346.2994,108.9733 L345.7921,109.2912 L345.8894,109.7736 L347.2912,108.4174 L348.9771,108.4696 L350.6976,108.6936 L352.2165,107.9178 L353.8415,107.6679 L353.8912,107.7027 L352.8764,108.997 L352.0878,110.4496 L351.19,111.8259 L350.5005,113.3479 L349.1322,114.3947 " fill="#2E2E2E" style="stroke:#2E2E2E;stroke-width:1.0;"/><polygon fill="#2E2E2E" points="266.0166,137.4674,265.5768,138.0683,265.0567,138.9484,264.3128,139.5415,263.5311,139.8658,262.9078,139.8939,262.1067,139.4883,261.3509,139.2233,260.7771,138.6853,260.4762,138.0694,260.2977,137.5789,260.1229,136.9384,259.8391,136.3871,260.0572,135.8489,260.2482,135.2593,260.9653,134.793,261.4697,134.188,262.0941,133.9871,262.8364,133.8141,263.7883,133.9169,264.3097,134.1628,264.9158,134.2742,265.6529,135.0293,265.9098,135.8265,266.0214,136.3704,265.895,137.2668" style="stroke:#2E2E2E;stroke-width:1.0;"/><path d="M436,232.7377 L436,232.9245 L438.6,232.3694 L441.2,232.9095 L443.8,233.093 L446.4,232.1036 L449,232.7377 L449,232.7377 L449,232.7032 L454.7501,232.5482 L460.5001,232.5673 L466.2502,232.7074 L472.0002,232.4304 L477.7503,232.7377 " fill="none" style="stroke:#2E2E2E;stroke-width:1.0;stroke-dasharray:3.0,3.0;"/><path d="M477.7503,235.8372 L477.8997,235.9493 L477.9205,234.9963 L478.8175,234.7005 L479.4292,234.1907 L479.1026,232.9771 L480.0749,232.7377 L480.0196,232.6963 L479.3066,231.8904 L478.8723,231.2934 L478.6316,230.8417 L477.7235,229.8894 L477.7503,229.6382 L477.933,230.0952 L479.0919,229.738 L480.7844,230.7148 L482.5421,231.8544 L483.9209,232.047 L485.4989,232.7377 L485.5214,232.794 L483.9386,233.3312 L482.4584,234.1248 L480.9287,234.7948 L479.4933,235.7007 L477.7503,235.8372 " fill="#2E2E2E" style="stroke:#2E2E2E;stroke-width:1.0;"/><polygon fill="#2E2E2E" points="439.0166,233.4674,438.5768,234.0683,438.0567,234.9484,437.3128,235.5415,436.5311,235.8658,435.9078,235.8939,435.1067,235.4883,434.3509,235.2233,433.7771,234.6853,433.4762,234.0694,433.2977,233.5789,433.1229,232.9384,432.8391,232.3871,433.0572,231.8489,433.2482,231.2593,433.9653,230.793,434.4697,230.188,435.0941,229.9871,435.8364,229.8141,436.7883,229.9169,437.3097,230.1628,437.9158,230.2742,438.6529,231.0293,438.9098,231.8265,439.0214,232.3704,438.895,233.2668" style="stroke:#2E2E2E;stroke-width:1.0;"/><path d="M263,159.7377 L263,159.9245 L265.6,159.3694 L268.2,159.9095 L270.8,160.093 L273.4,159.1036 L276,159.7377 L276,159.7377 L275.997,159.7033 L278.9152,159.8062 L281.8487,160.0826 L284.7928,160.4795 L287.7004,160.4609 L290.6591,161.0243 L290.7172,161.2634 L293.4828,161.4539 L296.4181,162.3425 L299.374,163.3163 L302.2095,163.7945 L305.1084,164.5333 " fill="none" style="stroke:#2E2E2E;stroke-width:1.0;stroke-dasharray:3.0,3.0;"/><path d="M304.1184,167.4111 L304.2233,167.5658 L304.5414,166.6793 L305.4742,166.6992 L306.2068,166.4239 L306.2811,165.178 L307.2667,165.2758 L307.201,165.2546 L306.6722,164.4353 L306.4749,163.723 L306.508,163.085 L305.7471,162.1908 L306.0983,161.6555 L306.4197,162.0282 L306.9732,162.3018 L308.4653,163.6635 L310.0718,165.1578 L311.0121,165.8799 L312.3029,167.0081 L312.3058,167.0687 L310.6646,167.0604 L309.0369,167.3278 L307.4027,167.4622 L305.7809,167.8505 L304.1184,167.4111 " fill="#2E2E2E" style="stroke:#2E2E2E;stroke-width:1.0;"/><polygon fill="#2E2E2E" points="266.0166,160.4674,265.5768,161.0683,265.0567,161.9484,264.3128,162.5415,263.5311,162.8658,262.9078,162.8939,262.1067,162.4883,261.3509,162.2233,260.7771,161.6853,260.4762,161.0694,260.2977,160.5789,260.1229,159.9384,259.8391,159.3871,260.0572,158.8489,260.2482,158.2593,260.9653,157.793,261.4697,157.188,262.0941,156.9871,262.8364,156.8141,263.7883,156.9169,264.3097,157.1628,264.9158,157.2742,265.6529,158.0293,265.9098,158.8265,266.0214,159.3704,265.895,160.2668" style="stroke:#2E2E2E;stroke-width:1.0;"/><!--SRC=[xHdRRjiszDdw2YvzQO4vi-pOIOrYQEvjbtH1alQTbeviphAeKLGIRyY_xv2IB4gYBMTrW3sCXW6PvtvuRfG_9f8AkQIBqFb9pc0199c3z6RBBazbo29mV0vZiaU93o1-9fG4iA0Xw9zxZg3B32XuJ7X0fZpq8I996kqvCHkJmRvxu0xVEqyBceo952auWO38ctLd4E7EmF5eY6ActGaJVZ9s225TCajXcJtvy5WyXZnba3qY2r-px0OiaBEkZreeI9KN2NWgr7PD8kvaQdO58kFMK6t5w0R1_2baIYXkF8tacBZvpv1xL38UQNjZe0BD0TXJK9aA6KBNvm-Wh7papaU8VErKvsFfO5p9d4KeYIx8X7hpgK0H_YaFkM96emH144a3AqtW12IzaqjqUK3310pWZ4R-es1IeiUrQqjGCgC-VqJpSg9iVKWKdrzHPS6v97zhoqusAABW5poI6UHD7zH7xtvQnY2kM3JFGO5_2Ew11k4kD0dKxlsCUVC8aYHtwZKLKnOHjwT_tL3VLngFzA-xbGMzVGL_nc_4VSYqBd1TVNPQUu-B20JfQsQRZLAyF1ghqyoTKDMka1UWbv3b9XGb9Fu4r5_XrKM_6UfLzwLxIFkJezLkTi8JZCkSySpaQPSj800Lsh1H_eRph6dMq2415KsIhpKjqAl6rYQmmLeop1Xasz5GzXUeW-kSS866t6OIz74QwwY0bvxeh80k0clQLHJf66OFz2gurNsX0-tHPtHwXb-LJAXb19ZLOguUEvrcHbHPhVYlFmcbCh8oKgKWwjGI1OFVAl7PwIGW7lInxqOdpPCAmHyrIml7JZEr5OtE0KsZk5zQ0gH22IFrQLZQrvRc9M68ZqME3vMGFDje9ALnB98cyntQRpsFiaYLAesqtH5MXxghR0PZ0-pJaSKzTUUR-LRXSE2hJni7cnx8TS52I2IF6hhc9QXJvg0xAdxfV6MIXiopdMkUBLObKQHa2r33moeefbPYkxvUo1FmxQGmej0RhIDLGVBXbxp9bStGXu2ceLGaNobEEDdQkuCf1tA3Gu3SisDhd-JrfM-Yn8mqbzlhMJkmkUejtEnSPgKhCMvmUc0UYp7oY-Z3TM2AEk5F1gXO5HGB7DVGm3XMYPyNpd8LPsNOXHqHkCJsdpU5qxQ6Srf9n3nA5E2uZVAuGja_U3yQPCF4vpRApnLARpJevPJdRPJd5SeytXJWQnlbrmfbdlJFXkigFK-ZTHf1PAjU5gmYrueerIWbtkvxgRbCmv_DcJQ4ASwzoiADPTOM3vO2Nc6TFB95IBEAKlLpNiJgvlITphtoz-QfGADOHHkogIVP0vFBTMtnvOtcXAw2-eWU7c0jl5EtX9f9vwkoL-nWwrlmoDySYIiiQzeLq3QZuxBkxCvkevWrpwlXzBmFxa9oZNSnv9JYaRx6hir12VoPgk6x4P45WpMnjTb3PXmKZCeuA2VNfvOCUx8Djsg_EVvtpY2aIyl-5Gj0zNShgogmadShKBrx5xckHedOobL3BAfSbjSiom2JyLitPXYq6vrsXabkmJ5lIGMAzU9G0vikCO2MmUMskCTjLA_4iZbk1RKuxxPwJxGui8QnrfLtg-Q_LVd8BzZszB1ToBREO8-78NYAV_9ADS93ZeA7hyGTTtRPKAhC9mg9YjTYJwUGzGJBwm3FxHtM1E3cePf7ce5PPLlSfkhPOvb6Qas_TirgPbYz-aiMO7lvuJabtwh7pIB6kzOEksQLFzvMGA3wO5D_lVxaZUyDXchIQ3i7l2eAFE8sx-0aOPkKJVRvLlsO_HUglggJRGUB5yVqXTFdHV_YzEAylTdxLD89JU2rYar8azqLiiuMpSvQoSineP62nr8ADacb3Rq2ozuZk3K3-UGFy7OuI6vgHDkgNw1leNwQWBVBqxVTLgmcvSogsWXq9OscuNz5dnWv_ukAiMaGQBaS1Eh_6_5IWKLxgjGHisDj42ZKYwCNoYkwb6NWQfENI2fXb-copUtIbYH5xTqYIV0wbBvQWQJYXPNTCWsiNibKJfQ5y3BEsxOZF4DllaD__Fz7x0_z4NiJqaX-kxuY3o0ITJ5nz_kz_c1_zFOUm_Ou5iGz8kvet1kCXqVaylgUAF0xv-tbpHL9q08SkNoMP6c0zE-SB_I1ablKZItmP7wF8VfozbknGSwZ1oPuj527z-NxTOamEkYUC4dkidzllbyxPzaRPwJmk7fBEoRVxY-wHyuL5laK2-iOhmlEgNA2m4F-TlSF]--></g></svg>