<?xml version="1.0" encoding="UTF-8" standalone="no"?>
<!DOCTYPE svg PUBLIC "-//W3C//DTD SVG 1.1//EN"
 "http://www.w3.org/Graphics/SVG/1.1/DTD/svg11.dtd">
<!-- Generated by graphviz version 7.0.5 (20221223.1930)
 -->
<!-- Title: G Pages: 1 -->
<svg width="378pt" height="247pt"
 viewBox="0.00 0.00 378.36 246.71" xmlns="http://www.w3.org/2000/svg" xmlns:xlink="http://www.w3.org/1999/xlink">
<g id="graph0" class="graph" transform="scale(1 1) rotate(0) translate(4 242.71)">
<title>G</title>
<!-- run -->
<g id="node1" class="node">
<title>run</title>
<ellipse fill="none" stroke="black" cx="108.24" cy="-110.03" rx="27" ry="18"/>
<text text-anchor="middle" x="108.24" y="-106.33" font-family="Helvetica,Arial,sans-serif" font-size="14.00">run</text>
</g>
<!-- intr -->
<g id="node2" class="node">
<title>intr</title>
<ellipse fill="none" stroke="black" cx="51.14" cy="-59.71" rx="27" ry="18"/>
<text text-anchor="middle" x="51.14" y="-56.01" font-family="Helvetica,Arial,sans-serif" font-size="14.00">intr</text>
</g>
<!-- run&#45;&#45;intr -->
<g id="edge1" class="edge">
<title>run&#45;&#45;intr</title>
<path fill="none" stroke="black" d="M91.73,-95.48C84.22,-88.86 75.35,-81.04 67.82,-74.4"/>
</g>
<!-- kernel -->
<g id="node4" class="node">
<title>kernel</title>
<ellipse fill="none" stroke="black" cx="183.98" cy="-137.54" rx="38.19" ry="18"/>
<text text-anchor="middle" x="183.98" y="-133.84" font-family="Helvetica,Arial,sans-serif" font-size="14.00">kernel</text>
</g>
<!-- run&#45;&#45;kernel -->
<g id="edge4" class="edge">
<title>run&#45;&#45;kernel</title>
<path fill="none" stroke="black" d="M132.21,-118.73C138.88,-121.16 146.22,-123.82 153.23,-126.37"/>
</g>
<!-- runbl -->
<g id="node3" class="node">
<title>runbl</title>
<ellipse fill="none" stroke="black" cx="34.45" cy="-126.16" rx="34.39" ry="18"/>
<text text-anchor="middle" x="34.45" y="-122.46" font-family="Helvetica,Arial,sans-serif" font-size="14.00">runbl</text>
</g>
<!-- intr&#45;&#45;runbl -->
<g id="edge2" class="edge">
<title>intr&#45;&#45;runbl</title>
<path fill="none" stroke="black" d="M46.58,-77.87C44.22,-87.24 41.36,-98.65 39,-108.03"/>
</g>
<!-- runbl&#45;&#45;run -->
<g id="edge3" class="edge">
<title>runbl&#45;&#45;run</title>
<path fill="none" stroke="black" d="M66.6,-119.13C71.88,-117.98 77.3,-116.8 82.4,-115.68"/>
</g>
<!-- zombie -->
<g id="node5" class="node">
<title>zombie</title>
<ellipse fill="none" stroke="black" cx="171.33" cy="-220.71" rx="42.49" ry="18"/>
<text text-anchor="middle" x="171.33" y="-217.01" font-family="Helvetica,Arial,sans-serif" font-size="14.00">zombie</text>
</g>
<!-- kernel&#45;&#45;zombie -->
<g id="edge5" class="edge">
<title>kernel&#45;&#45;zombie</title>
<path fill="none" stroke="black" d="M181.23,-155.58C179.13,-169.44 176.23,-188.5 174.12,-202.41"/>
</g>
<!-- sleep -->
<g id="node6" class="node">
<title>sleep</title>
<ellipse fill="none" stroke="black" cx="256.27" cy="-154.97" rx="33.6" ry="18"/>
<text text-anchor="middle" x="256.27" y="-151.27" font-family="Helvetica,Arial,sans-serif" font-size="14.00">sleep</text>
</g>
<!-- kernel&#45;&#45;sleep -->
<g id="edge6" class="edge">
<title>kernel&#45;&#45;sleep</title>
<path fill="none" stroke="black" d="M218.43,-145.84C220.76,-146.4 223.1,-146.97 225.4,-147.52"/>
</g>
<!-- runmem -->
<g id="node7" class="node">
<title>runmem</title>
<ellipse fill="none" stroke="black" cx="243.19" cy="-83.36" rx="48.19" ry="18"/>
<text text-anchor="middle" x="243.19" y="-79.66" font-family="Helvetica,Arial,sans-serif" font-size="14.00">runmem</text>
</g>
<!-- kernel&#45;&#45;runmem -->
<g id="edge7" class="edge">
<title>kernel&#45;&#45;runmem</title>
<path fill="none" stroke="black" d="M201.74,-121.28C208.97,-114.67 217.31,-107.04 224.62,-100.35"/>
</g>
<!-- sleep&#45;&#45;runmem -->
<g id="edge13" class="edge">
<title>sleep&#45;&#45;runmem</title>
<path fill="none" stroke="black" d="M252.97,-136.9C251.01,-126.13 248.51,-112.49 246.54,-101.67"/>
</g>
<!-- swap -->
<g id="node8" class="node">
<title>swap</title>
<ellipse fill="none" stroke="black" cx="333.97" cy="-148.25" rx="32.49" ry="18"/>
<text text-anchor="middle" x="333.97" y="-144.55" font-family="Helvetica,Arial,sans-serif" font-size="14.00">swap</text>
</g>
<!-- sleep&#45;&#45;swap -->
<g id="edge8" class="edge">
<title>sleep&#45;&#45;swap</title>
<path fill="none" stroke="black" d="M289.68,-152.08C293.63,-151.74 297.65,-151.39 301.59,-151.05"/>
</g>
<!-- runswap -->
<g id="node9" class="node">
<title>runswap</title>
<ellipse fill="none" stroke="black" cx="322.26" cy="-73.46" rx="48.19" ry="18"/>
<text text-anchor="middle" x="322.26" y="-69.76" font-family="Helvetica,Arial,sans-serif" font-size="14.00">runswap</text>
</g>
<!-- swap&#45;&#45;runswap -->
<g id="edge9" class="edge">
<title>swap&#45;&#45;runswap</title>
<path fill="none" stroke="black" d="M331.14,-130.15C329.32,-118.56 326.98,-103.57 325.15,-91.92"/>
</g>
<!-- runswap&#45;&#45;runmem -->
<g id="edge11" class="edge">
<title>runswap&#45;&#45;runmem</title>
<path fill="none" stroke="black" d="M276.27,-79.22C276.13,-79.23 275.99,-79.25 275.86,-79.27"/>
</g>
<!-- new -->
<g id="node10" class="node">
<title>new</title>
<ellipse fill="none" stroke="black" cx="281.34" cy="-18" rx="28.7" ry="18"/>
<text text-anchor="middle" x="281.34" y="-14.3" font-family="Helvetica,Arial,sans-serif" font-size="14.00">new</text>
</g>
<!-- runswap&#45;&#45;new -->
<g id="edge10" class="edge">
<title>runswap&#45;&#45;new</title>
<path fill="none" stroke="black" d="M309.31,-55.91C304.25,-49.06 298.48,-41.24 293.5,-34.49"/>
</g>
<!-- new&#45;&#45;runmem -->
<g id="edge12" class="edge">
<title>new&#45;&#45;runmem</title>
<path fill="none" stroke="black" d="M271.32,-35.17C265.84,-44.55 259.07,-56.15 253.55,-65.62"/>
</g>
</g>
</svg>
